<?xml version="1.0" standalone="no"?>
<!DOCTYPE svg PUBLIC "-//W3C//DTD SVG 20010904//EN"
 "http://www.w3.org/TR/2001/REC-SVG-20010904/DTD/svg10.dtd">
<svg version="1.0" xmlns="http://www.w3.org/2000/svg"
 width="322.000000pt" height="76.000000pt" viewBox="0 0 322.000000 76.000000"
 preserveAspectRatio="xMidYMid meet">

<g transform="translate(0.000000,76.000000) scale(0.100000,-0.100000)"
fill="#ffffff" stroke="none">
<path d="M1660 600 l0 -50 -36 0 c-33 0 -35 -2 -32 -27 2 -23 8 -29 36 -31
l32 -3 0 -128 c0 -188 25 -231 132 -231 69 0 83 9 68 41 -10 22 -18 25 -58 25
-64 -1 -72 17 -72 172 l0 122 60 0 60 0 0 30 0 30 -60 0 -60 0 0 50 0 50 -35
0 -35 0 0 -50z"/>
<path d="M1231 558 c-48 -13 -110 -58 -150 -108 l-34 -43 -38 43 c-37 43 -38
43 -63 26 -25 -16 -26 -19 -26 -129 0 -107 1 -115 24 -136 l23 -22 41 42 40
43 48 -53 c58 -65 111 -92 190 -99 102 -8 174 26 225 106 54 86 32 228 -46
287 -64 50 -155 66 -234 43z m198 -43 c60 -40 91 -97 91 -169 0 -125 -84 -206
-212 -206 -83 1 -130 23 -197 94 -49 53 -52 59 -38 73 15 15 21 11 74 -44 83
-86 157 -104 243 -60 135 67 111 259 -37 296 -96 25 -155 -9 -280 -161 -89
-107 -120 -132 -130 -103 -3 9 52 80 159 207 69 82 128 109 224 104 46 -3 71
-10 103 -31z m-169 -170 c0 -74 -2 -135 -5 -135 -16 0 -63 31 -69 45 -8 23 -7
168 2 180 9 13 54 44 65 44 4 1 7 -60 7 -134z m92 88 c3 -55 23 -61 24 -8 1
44 5 48 31 30 47 -33 66 -120 39 -173 -15 -29 -53 -68 -60 -61 -3 3 -13 71
-15 102 -1 4 -5 7 -11 7 -6 0 -10 -28 -10 -65 l0 -65 -35 0 -35 0 0 140 0 140
34 0 c34 0 35 -1 38 -47z m-351 -4 c28 -36 30 -42 17 -55 -14 -14 -19 -11 -48
26 -26 33 -30 43 -20 55 7 8 14 15 15 15 2 0 18 -18 36 -41z m159 -86 l-1 -68
-24 30 c-14 17 -25 34 -25 38 0 8 41 65 48 66 1 1 2 -29 2 -66z m-192 27 l23
-30 -23 -30 c-12 -17 -25 -26 -28 -20 -4 7 -5 86 -1 108 2 6 9 -1 29 -28z"/>
<path d="M110 346 l0 -216 30 0 30 0 0 74 0 74 58 4 c31 2 62 2 67 0 6 -2 34
-37 63 -78 51 -71 55 -74 93 -74 l40 0 -23 31 c-13 17 -39 54 -59 82 l-36 51
30 16 c65 33 92 110 62 174 -28 59 -60 70 -217 74 l-138 4 0 -216z m277 132
c29 -27 30 -76 3 -106 -24 -26 -65 -34 -150 -30 l-65 3 -3 78 -3 77 97 0 c87
0 100 -2 121 -22z"/>
<path d="M732 551 c-92 -24 -162 -115 -162 -212 0 -70 43 -147 104 -184 41
-25 58 -29 115 -29 37 0 81 6 98 13 l32 13 -23 25 c-20 21 -27 23 -44 14 -45
-24 -127 -4 -168 41 -72 78 -56 184 36 246 27 18 45 23 80 20 25 -3 52 -7 60
-11 9 -4 21 2 33 18 17 23 17 25 -4 35 -28 15 -116 21 -157 11z"/>
<path d="M2036 546 c-22 -8 -48 -23 -58 -33 -18 -19 -18 -20 0 -36 17 -16 21
-16 60 3 81 39 162 14 181 -56 6 -21 9 -40 7 -42 -2 -2 -44 -4 -92 -5 -143 -3
-204 -50 -191 -148 8 -60 50 -95 124 -105 46 -5 61 -3 104 20 61 31 59 31 59
6 0 -16 7 -20 31 -20 l31 0 -4 168 c-3 182 -7 197 -64 233 -42 26 -138 34
-188 15z m172 -222 c18 -5 22 -13 22 -44 0 -31 -7 -44 -35 -69 -30 -26 -44
-31 -88 -31 -40 0 -59 5 -75 20 -42 40 -21 104 41 122 29 8 106 9 135 2z"/>
<path d="M2576 544 c-16 -9 -39 -28 -52 -43 l-23 -26 -1 38 c0 36 -1 37 -35
37 l-35 0 0 -210 0 -210 35 0 35 0 0 124 c0 178 26 229 119 230 45 1 48 3 58
33 8 28 7 32 -11 37 -34 9 -59 6 -90 -10z"/>
<path d="M2850 551 c-39 -12 -90 -41 -90 -49 0 -5 6 -17 14 -27 14 -19 15 -19
54 3 92 51 192 9 192 -81 0 -21 -4 -22 -73 -19 -94 4 -162 -19 -194 -67 -29
-43 -29 -79 0 -122 47 -70 143 -87 225 -39 28 17 37 18 43 8 5 -7 9 -16 9 -20
0 -5 14 -8 31 -8 l31 0 -4 163 c-3 151 -5 164 -26 195 -13 18 -37 39 -54 48
-36 19 -123 27 -158 15z m148 -227 c20 -6 23 -12 20 -52 -3 -40 -8 -50 -37
-69 -40 -27 -115 -31 -148 -8 -49 35 -33 106 30 124 38 11 103 13 135 5z"/>
</g>
</svg>
